<?xml version="1.0" standalone="no"?>
<!DOCTYPE svg PUBLIC "-//W3C//DTD SVG 20010904//EN"
 "http://www.w3.org/TR/2001/REC-SVG-20010904/DTD/svg10.dtd">
<svg version="1.0" xmlns="http://www.w3.org/2000/svg"
 width="260.000000pt" height="260.000000pt" viewBox="0 0 260.000000 260.000000"
 preserveAspectRatio="xMidYMid meet">
<metadata>
Created by potrace 1.14, written by Peter Selinger 2001-2017
</metadata>
<g transform="translate(0.000000,260.000000) scale(0.100000,-0.100000)"
fill="#000000" stroke="none">
<path d="M1095 2584 c-403 -69 -749 -319 -934 -674 -56 -107 -105 -240 -120
-327 -6 -32 -14 -69 -17 -83 -3 -14 -7 -83 -9 -155 -4 -215 32 -393 121 -583
l45 -99 -87 -319 c-47 -175 -89 -324 -91 -331 -3 -8 5 -9 29 -3 41 9 431 110
556 144 l92 25 74 -34 c173 -81 338 -117 531 -118 121 -1 164 2 255 18 365 64
717 320 904 659 66 119 127 301 143 426 9 66 9 299 1 355 -13 83 -44 204 -68
260 -87 211 -216 400 -356 520 -31 28 -62 55 -69 61 -22 23 -182 121 -240 148
-76 36 -208 81 -277 95 -29 6 -66 13 -83 17 -62 13 -320 12 -400 -2z m396
-220 c229 -43 409 -140 574 -308 174 -177 283 -399 309 -632 58 -531 -292
-1021 -826 -1155 -107 -27 -322 -34 -423 -14 -107 21 -115 23 -169 41 -47 15
-180 78 -224 105 -14 9 -56 1 -211 -40 -107 -29 -197 -51 -201 -49 -4 2 16 91
45 197 53 192 53 195 36 220 -10 15 -33 55 -51 91 -88 175 -120 315 -116 510
2 74 6 149 10 165 23 106 33 140 66 222 66 161 188 324 324 432 35 28 66 51
69 51 3 0 27 14 52 31 88 60 267 123 400 142 65 10 269 4 336 -9z"/>
<path d="M803 1895 c-33 -14 -95 -80 -119 -127 -45 -85 -49 -203 -13 -310 27
-78 70 -151 148 -253 l61 -79 -106 -52 c-58 -28 -111 -57 -117 -63 -13 -13
-11 -79 4 -133 14 -55 70 -112 145 -149 110 -55 219 -47 417 30 l77 29 86 -34
c175 -71 290 -80 396 -32 113 52 161 120 167 235 l2 53 -112 55 c-62 31 -115
57 -117 59 -2 2 22 37 53 77 196 253 230 457 103 624 -45 60 -95 86 -155 84
-83 -4 -79 1 -167 -216 -43 -106 -45 -113 -32 -145 8 -18 33 -54 55 -80 23
-25 41 -54 41 -63 0 -26 -83 -145 -145 -208 -30 -30 -83 -74 -116 -96 -69 -46
-60 -48 -169 35 -75 56 -164 162 -204 241 -16 31 -15 32 25 80 22 26 49 64 59
84 l19 35 -44 107 c-72 178 -92 217 -112 218 -76 5 -106 4 -130 -6z"/>
</g>
</svg>
